<?xml version="1.0" standalone="no"?>
<!DOCTYPE svg PUBLIC "-//W3C//DTD SVG 20010904//EN"
 "http://www.w3.org/TR/2001/REC-SVG-20010904/DTD/svg10.dtd">
<svg version="1.0" xmlns="http://www.w3.org/2000/svg"
 width="320.000000pt" height="79.000000pt" viewBox="0 0 320.000000 79.000000"
 preserveAspectRatio="xMidYMid meet">

<g transform="translate(0.000000,79.000000) scale(0.100000,-0.100000)"
fill="#000000" stroke="none">
<path d="M2492 578 c3 -156 6 -188 22 -218 26 -49 56 -76 107 -100 105 -47
235 -1 277 98 38 91 38 92 -5 92 -35 0 -40 -4 -57 -41 -25 -54 -50 -76 -97
-84 -54 -9 -94 2 -131 36 -27 24 -32 37 -36 88 l-4 60 78 3 79 3 3 38 3 37
-80 0 -81 0 0 85 0 85 -41 0 -41 0 4 -182z"/>
<path d="M578 743 l-38 -4 0 -255 0 -254 40 0 40 0 0 260 c0 143 -1 259 -2
258 -2 -1 -20 -3 -40 -5z"/>
<path d="M681 743 c-22 -4 -23 -8 -17 -50 3 -25 6 -140 6 -254 l0 -209 40 0
40 0 0 260 0 260 -22 -1 c-13 -1 -34 -4 -47 -6z"/>
<path d="M430 640 c0 -24 -7 -25 -71 -4 -54 18 -149 12 -172 -10 -6 -7 -19
-15 -27 -18 -9 -3 -29 -24 -45 -47 -53 -77 -44 -195 21 -265 58 -62 177 -86
244 -48 30 16 32 16 45 -1 9 -13 23 -17 47 -15 l33 3 3 213 2 212 -40 0 c-33
0 -40 -3 -40 -20z m-69 -92 c47 -26 64 -64 55 -124 -8 -63 -42 -94 -109 -100
-83 -8 -140 38 -140 113 0 109 98 165 194 111z"/>
<path d="M945 653 c-65 -14 -108 -44 -133 -93 -15 -32 -32 -119 -25 -137 4
-10 38 -13 144 -13 118 0 141 -2 146 -16 9 -23 -37 -64 -79 -71 -49 -7 -80 1
-110 32 -22 22 -29 24 -57 14 -39 -14 -39 -27 2 -66 131 -126 317 -51 329 132
l3 50 -147 3 c-82 1 -148 5 -148 9 0 3 9 21 21 39 33 55 120 59 174 8 24 -23
30 -24 56 -12 16 7 29 18 29 24 0 21 -62 73 -107 88 -47 16 -61 17 -98 9z"/>
<path d="M1207 653 c-4 -3 -7 -152 -7 -330 l0 -323 40 0 40 0 0 130 c0 81 4
130 10 130 6 0 36 -7 68 -16 45 -13 66 -14 97 -5 58 15 117 63 143 114 24 49
30 133 11 170 -19 37 -82 98 -118 113 -43 18 -112 18 -158 -1 -46 -19 -50 -19
-56 5 -4 14 -14 20 -34 20 -16 0 -33 -3 -36 -7z m294 -123 c40 -38 41 -41 37
-88 -6 -64 -36 -105 -87 -120 -59 -18 -112 1 -145 52 -38 59 -33 109 16 158
34 34 43 38 88 38 44 0 54 -4 91 -40z"/>
<path d="M2128 608 c-6 -64 -4 -356 2 -361 3 -2 20 -7 38 -10 l32 -6 0 119 c0
112 2 123 25 161 31 48 63 62 133 57 50 -5 54 -3 68 25 9 16 14 30 12 32 -34
28 -136 34 -182 10 -33 -18 -56 -13 -56 10 0 10 -10 15 -34 15 -33 0 -33 -1
-38 -52z"/>
<path d="M1791 635 c-66 -29 -103 -79 -121 -163 -9 -42 -8 -57 10 -105 12 -32
24 -57 28 -57 4 0 22 -13 39 -29 42 -37 141 -60 181 -42 48 22 111 66 112 77
0 6 9 23 20 37 26 33 29 130 6 175 -52 101 -176 149 -275 107z m142 -77 c50
-26 82 -94 68 -143 -21 -76 -84 -108 -178 -89 -40 8 -83 74 -83 126 0 31 7 45
40 78 35 35 46 40 86 40 25 0 55 -5 67 -12z"/>
<path d="M2990 340 c-27 -27 -25 -66 6 -95 21 -20 30 -22 56 -14 50 14 71 63
44 104 -21 32 -77 34 -106 5z"/>
</g>
</svg>
