<?xml version="1.0" standalone="no"?>
<!DOCTYPE svg PUBLIC "-//W3C//DTD SVG 20010904//EN"
 "http://www.w3.org/TR/2001/REC-SVG-20010904/DTD/svg10.dtd">
<svg version="1.0" xmlns="http://www.w3.org/2000/svg"
 width="320.000000pt" height="98.000000pt" viewBox="0 0 320.000000 98.000000"
 preserveAspectRatio="xMidYMid meet">

<g transform="translate(0.000000,98.000000) scale(0.100000,-0.100000)"
fill="#000000" stroke="none">
<path d="M1115 854 c-11 -2 -51 -12 -90 -21 -86 -19 -178 -60 -169 -75 4 -6 0
-8 -12 -4 -27 8 -118 -60 -110 -81 5 -12 4 -13 -7 -5 -11 9 -19 6 -35 -11 -12
-13 -20 -27 -17 -30 3 -4 2 -5 -2 -2 -3 3 -15 -2 -25 -11 -14 -14 -16 -20 -6
-33 10 -13 10 -14 -2 -4 -11 10 -17 9 -32 -4 -27 -24 -22 -33 21 -33 37 0 68
19 54 33 -3 4 0 7 7 7 7 0 20 9 29 19 21 23 145 108 172 116 10 4 19 11 19 16
0 5 3 8 8 7 12 -2 62 14 62 21 0 3 10 7 23 7 12 1 56 7 97 14 137 22 301 -1
420 -59 51 -25 84 -45 91 -55 4 -5 12 -5 18 -2 6 4 10 4 9 -1 -4 -12 98 -104
106 -95 4 4 6 0 4 -8 -2 -11 8 -16 41 -18 l43 -3 -20 28 c-35 50 -121 125
-135 117 -6 -4 -9 -4 -5 1 10 11 -20 38 -33 29 -8 -4 -9 -3 -5 4 4 7 -14 22
-46 38 -44 23 -55 25 -72 14 -19 -12 -20 -12 -7 3 12 15 9 19 -23 32 -74 31
-154 47 -251 50 -55 2 -109 2 -120 -1z m500 -152 c-3 -3 -11 0 -18 7 -9 10 -8
11 6 5 10 -3 15 -9 12 -12z m-836 -6 c9 -11 9 -16 -1 -22 -7 -4 -10 -4 -6 1 4
4 3 14 -3 22 -6 7 -9 13 -6 13 2 0 10 -6 16 -14z m956 -104 c-3 -3 -11 0 -18
7 -9 10 -8 11 6 5 10 -3 15 -9 12 -12z"/>
<path d="M1500 530 c-8 -14 -8 -26 0 -40 11 -20 16 -22 45 -22 29 0 34 2 45
22 17 32 -4 60 -45 60 -24 0 -37 -6 -45 -20z"/>
<path d="M1170 345 l0 -175 39 0 c22 0 41 5 43 10 2 7 14 6 34 -1 78 -30 164
32 164 117 0 104 -72 153 -180 123 -12 -3 -16 8 -18 49 l-3 52 -40 0 -39 0 0
-175z m164 14 c56 -26 37 -119 -24 -119 -54 0 -78 67 -40 108 24 25 30 26 64
11z"/>
<path d="M2476 488 c-3 -18 -4 -94 -1 -168 l4 -135 36 -3 35 -3 0 80 c0 44 5
83 10 86 6 4 8 9 6 13 -8 13 61 12 79 -2 15 -11 18 -26 16 -94 l-2 -81 41 1
42 0 -4 94 c-3 86 -5 96 -30 121 -29 29 -75 35 -130 19 l-28 -8 0 56 0 56 -34
0 c-30 0 -34 -3 -40 -32z"/>
<path d="M1680 450 c0 -19 -5 -30 -14 -30 -16 0 -31 -34 -21 -50 3 -5 13 -10
21 -10 11 0 14 -15 14 -61 0 -54 3 -64 29 -90 24 -24 38 -29 75 -29 30 0 46 4
46 13 0 21 -14 35 -40 38 -23 4 -25 8 -28 66 -3 61 -3 62 25 65 20 2 29 9 31
26 3 18 -2 23 -27 28 -26 6 -31 11 -31 35 0 27 -3 29 -40 29 -38 0 -40 -2 -40
-30z m55 -249 c-6 -5 -25 10 -25 20 0 5 6 4 14 -3 8 -7 12 -15 11 -17z"/>
<path d="M340 300 l0 -130 45 0 45 0 0 76 c0 87 11 114 45 114 34 0 45 -27 45
-114 l0 -76 40 0 40 0 0 68 c0 37 6 78 13 92 13 27 53 38 70 21 9 -9 15 -68
17 -163 0 -14 9 -18 40 -18 l40 0 0 101 c0 98 -1 101 -29 130 -23 23 -38 29
-71 29 -22 0 -51 -7 -65 -16 -21 -14 -26 -14 -54 0 -35 19 -69 20 -108 5 -19
-7 -29 -7 -31 0 -2 6 -21 11 -43 11 l-39 0 0 -130z"/>
<path d="M900 412 c-46 -25 -74 -80 -65 -129 8 -47 20 -64 65 -92 123 -75 273
57 200 177 -36 59 -132 80 -200 44z m108 -58 c14 -10 22 -25 22 -45 0 -49 -16
-69 -55 -69 -38 0 -55 20 -55 64 0 27 31 66 53 66 7 0 23 -7 35 -16z"/>
<path d="M1502 303 l3 -128 40 0 40 0 3 128 3 127 -46 0 -46 0 3 -127z"/>
<path d="M1957 423 c-12 -3 -16 -10 -13 -20 5 -13 4 -14 -8 -4 -12 10 -19 6
-39 -21 -13 -18 -27 -41 -30 -50 -7 -21 11 -88 24 -88 6 0 8 -4 4 -10 -8 -13
42 -43 60 -36 9 3 13 2 10 -4 -8 -13 72 -11 108 2 57 22 23 44 -63 43 -62 -1
-65 0 -64 22 0 12 3 26 7 29 3 3 44 6 91 6 76 -1 86 1 86 17 0 10 -9 26 -20
36 -11 10 -20 23 -20 28 0 6 7 2 16 -9 15 -18 15 -18 2 5 -27 45 -93 69 -151
54z m-26 -66 c-10 -9 -11 -8 -5 6 3 10 9 15 12 12 3 -3 0 -11 -7 -18z m117 -2
c25 -28 21 -32 -33 -35 -81 -4 -92 4 -58 42 23 26 65 23 91 -7z m-125 -100
c-3 -9 -8 -14 -10 -11 -3 3 -2 9 2 15 9 16 15 13 8 -4z"/>
<path d="M2270 423 c-39 -13 -60 -28 -55 -40 2 -8 1 -11 -5 -8 -11 7 -40 -46
-40 -76 0 -31 37 -86 68 -102 15 -7 50 -14 78 -16 43 -1 54 2 78 26 l27 27
-26 14 c-20 10 -30 11 -40 2 -16 -13 -97 -21 -89 -9 2 4 0 11 -6 14 -6 4 -10
30 -8 60 2 41 6 51 17 47 8 -3 12 -1 8 5 -4 7 7 8 36 3 23 -5 45 -6 50 -3 4 2
7 1 6 -4 -4 -21 3 -22 26 -7 21 14 23 19 13 32 -26 31 -96 49 -138 35z m-37
-194 c4 -16 3 -18 -9 -8 -7 6 -11 15 -8 20 8 13 11 11 17 -12z"/>
</g>
</svg>
