<?xml version="1.0" standalone="no"?>
<!DOCTYPE svg PUBLIC "-//W3C//DTD SVG 20010904//EN"
 "http://www.w3.org/TR/2001/REC-SVG-20010904/DTD/svg10.dtd">
<svg version="1.0" xmlns="http://www.w3.org/2000/svg"
 width="500.000000pt" height="150.000000pt" viewBox="0 0 500.000000 150.000000"
 preserveAspectRatio="xMidYMid meet">

<g transform="translate(0.000000,150.000000) scale(0.100000,-0.100000)"
fill="#000000" stroke="none">
<path d="M538 1343 c6 -2 18 -2 25 0 6 3 1 5 -13 5 -14 0 -19 -2 -12 -5z"/>
<path d="M748 1343 c6 -2 18 -2 25 0 6 3 1 5 -13 5 -14 0 -19 -2 -12 -5z"/>
<path d="M498 1333 c7 -3 16 -2 19 1 4 3 -2 6 -13 5 -11 0 -14 -3 -6 -6z"/>
<path d="M550 1310 c-9 -6 -10 -10 -3 -10 6 0 13 -12 15 -27 3 -25 4 -23 9 10
5 39 3 42 -21 27z"/>
<path d="M610 1290 c0 -26 3 -30 28 -29 l27 1 -25 7 c-24 7 -24 7 -5 19 l20
11 -20 2 c-17 1 -16 2 5 9 l25 8 -27 1 c-25 1 -28 -3 -28 -29z"/>
<path d="M685 1292 c0 -20 5 -28 18 -28 9 0 16 5 13 11 -2 5 1 19 7 30 9 17 8
18 -5 8 -9 -8 -18 -9 -24 -3 -5 5 -9 -2 -9 -18z"/>
<path d="M757 1304 c-4 -4 -7 -19 -6 -33 0 -23 1 -24 8 -6 8 19 8 19 15 -2 10
-32 23 -28 28 9 4 26 3 28 -7 15 -11 -15 -13 -15 -21 4 -5 11 -13 17 -17 13z"/>
<path d="M830 1275 c-19 -23 -8 -50 20 -50 19 0 26 6 28 24 5 35 -26 53 -48
26z m40 -20 c0 -19 -20 -29 -32 -17 -8 8 -7 16 2 26 14 17 30 12 30 -9z"/>
<path d="M390 1255 c-16 -19 -3 -55 19 -55 31 0 43 23 25 48 -18 26 -27 27
-44 7z m40 -26 c0 -20 -24 -26 -35 -9 -4 6 -4 17 -1 25 7 20 36 7 36 -16z"/>
<path d="M902 1235 c-13 -28 -9 -45 11 -45 8 0 7 4 -2 9 -12 8 -12 12 -2 25 7
8 11 20 9 27 -2 6 -9 -1 -16 -16z"/>
<path d="M341 1218 c-1 -12 -7 -16 -18 -12 -12 4 -9 -1 7 -15 28 -23 48 -28
32 -8 -5 6 -12 21 -15 32 -4 16 -5 16 -6 3z"/>
<path d="M580 1214 c-55 -10 -148 -48 -198 -81 -69 -46 -115 -101 -159 -191
-35 -69 -37 -79 -39 -185 l-2 -112 8 105 c11 156 46 236 144 328 179 169 459
171 637 5 61 -57 95 -106 126 -188 13 -33 21 -46 18 -30 -9 47 -60 146 -99
191 -45 52 -123 105 -200 133 -58 21 -184 35 -236 25z"/>
<path d="M960 1205 c-19 -23 -8 -50 20 -50 19 0 26 6 28 24 5 35 -26 53 -48
26z m37 -29 c-9 -23 -37 -20 -37 3 0 21 20 33 34 20 5 -4 6 -15 3 -23z"/>
<path d="M1065 1190 c10 -11 20 -20 23 -20 3 0 -3 9 -13 20 -10 11 -20 20 -23
20 -3 0 3 -9 13 -20z"/>
<path d="M277 1168 c4 -7 8 -19 8 -27 0 -8 7 -17 15 -19 13 -5 13 -3 0 13 -14
17 -13 17 10 10 25 -8 25 -8 6 14 -21 23 -53 30 -39 9z"/>
<path d="M448 1066 l-178 -101 0 -222 0 -223 38 -23 c88 -56 314 -179 319
-174 15 15 -17 39 -161 121 l-156 88 0 207 0 207 156 89 c147 83 171 102 162
123 -1 5 -83 -36 -180 -92z"/>
<path d="M692 1149 c2 -19 35 -42 161 -113 l157 -90 0 -207 0 -207 -160 -92
c-122 -70 -160 -96 -160 -112 0 -20 0 -20 33 0 51 32 165 98 249 144 l78 43 0
226 0 226 -52 28 c-51 27 -207 116 -276 158 l-34 20 4 -24z"/>
<path d="M1017 1153 c-12 -11 -7 -40 8 -53 21 -18 46 3 27 22 -9 9 -12 9 -12
0 0 -7 -4 -12 -10 -12 -5 0 -10 7 -10 15 0 19 32 33 38 17 2 -7 8 -12 14 -12
6 0 6 6 -2 15 -13 16 -42 20 -53 8z"/>
<path d="M260 1125 c29 -31 31 -31 17 0 -7 14 -18 25 -26 25 -10 0 -7 -8 9
-25z"/>
<path d="M235 1100 c10 -11 23 -20 28 -20 6 0 2 9 -8 20 -10 11 -23 20 -28 20
-6 0 -2 -9 8 -20z"/>
<path d="M1074 1089 c-19 -22 -19 -22 3 -10 24 12 39 31 25 31 -5 0 -17 -10
-28 -21z"/>
<path d="M196 1076 c3 -8 -1 -16 -9 -18 -11 -2 -9 -8 10 -22 25 -18 25 -18 19
2 -5 16 -2 21 16 25 l23 4 -22 2 c-13 0 -23 6 -23 11 0 6 -4 10 -10 10 -5 0
-7 -6 -4 -14z"/>
<path d="M1110 1065 c0 -7 -8 -19 -17 -24 -14 -8 -10 -9 17 -4 40 7 52 13 26
13 -12 0 -16 5 -12 15 3 8 1 15 -4 15 -6 0 -10 -7 -10 -15z"/>
<path d="M634 1045 c-7 -30 -15 -31 -32 -5 -17 28 -42 26 -42 -4 0 -32 -18
-43 -33 -21 -20 27 -49 9 -42 -26 7 -31 -10 -40 -32 -18 -20 20 -35 -1 -28
-37 6 -33 5 -34 -19 -28 -29 7 -47 -19 -27 -39 16 -16 13 -38 -5 -35 -9 2 -21
-5 -27 -14 -9 -14 -8 -20 7 -31 20 -15 14 -37 -10 -37 -21 0 -17 -38 6 -45 24
-7 27 -35 4 -35 -10 0 -14 -7 -12 -22 2 -17 10 -23 29 -23 l27 -1 -5 76 c-6
92 19 168 74 225 39 40 123 85 161 85 18 0 22 6 22 30 0 37 -7 39 -16 5z"/>
<path d="M684 1045 c-4 -9 -2 -21 4 -27 15 -15 44 -1 40 19 -4 23 -36 29 -44
8z"/>
<path d="M784 1016 c-9 -24 4 -48 23 -44 12 2 18 12 18 28 0 29 -32 41 -41 16z"/>
<path d="M130 991 c-14 -27 -15 -26 28 -28 l37 -2 -28 15 c-15 8 -25 19 -22
24 4 6 4 10 1 10 -3 0 -10 -9 -16 -19z"/>
<path d="M1109 1001 c8 -5 19 -8 25 -7 6 2 8 1 4 -1 -5 -3 -8 -12 -8 -20 0
-14 3 -14 20 2 29 26 25 35 -17 35 -26 0 -34 -3 -24 -9z"/>
<path d="M1216 977 c3 -10 9 -15 12 -12 3 3 0 11 -7 18 -10 9 -11 8 -5 -6z"/>
<path d="M872 958 c-17 -17 -15 -55 3 -62 29 -11 64 21 49 45 -11 19 -41 28
-52 17z"/>
<path d="M607 906 c5 -51 3 -58 -56 -166 -33 -62 -61 -121 -61 -132 0 -17 12
-18 170 -18 150 0 170 2 170 16 0 9 -28 68 -61 131 -58 108 -61 118 -57 169 4
47 2 54 -14 54 -16 0 -18 -9 -18 -69 0 -63 4 -76 46 -151 25 -45 44 -90 42
-99 -3 -14 -19 -16 -108 -16 -129 0 -130 3 -66 117 42 74 46 86 46 149 0 61
-2 69 -19 69 -18 0 -19 -5 -14 -54z"/>
<path d="M126 925 c19 -14 18 -14 -3 -15 -20 0 -35 -20 -15 -20 4 0 18 -3 32
-5 22 -5 23 -4 5 4 -20 10 -19 10 3 17 12 3 22 10 22 14 0 4 -10 10 -22 14
-37 9 -43 7 -22 -9z"/>
<path d="M1363 933 c-29 -2 -53 -8 -53 -14 0 -5 9 -9 20 -9 18 0 20 -7 20 -65
0 -51 3 -65 15 -65 12 0 15 14 15 65 0 63 1 65 25 65 16 0 25 6 25 15 0 8 -3
14 -7 13 -5 -1 -32 -3 -60 -5z"/>
<path d="M2007 911 c-42 -38 -57 -39 -57 -6 0 14 -4 25 -10 25 -5 0 -10 -24
-10 -52 0 -29 -3 -63 -6 -75 -5 -17 -2 -23 10 -23 10 0 16 8 16 23 0 21 16 47
30 47 3 0 14 -16 24 -35 12 -21 27 -35 38 -35 19 0 19 2 -3 38 -12 20 -26 41
-31 46 -4 6 4 22 19 38 37 39 22 46 -20 9z"/>
<path d="M2132 933 c-39 -5 -50 -26 -50 -101 l0 -52 59 0 c68 0 80 17 17 22
-36 2 -44 7 -46 26 -3 20 1 22 37 22 31 0 41 4 41 16 0 12 -9 15 -37 12 -30
-2 -38 1 -41 15 -3 14 4 17 42 17 34 0 46 4 46 15 0 15 -5 15 -68 8z"/>
<path d="M2428 933 c-27 -2 -48 -9 -48 -15 0 -6 9 -8 20 -5 19 5 20 0 20 -64
0 -55 3 -69 15 -69 12 0 15 14 15 65 0 63 1 65 25 65 16 0 25 6 25 15 0 8 -6
14 -12 13 -7 -1 -34 -3 -60 -5z"/>
<path d="M2667 911 c-42 -38 -57 -39 -57 -5 0 14 -4 23 -10 19 -5 -3 -10 -37
-10 -76 0 -39 4 -69 10 -69 6 0 10 10 10 23 0 21 16 47 30 47 3 0 14 -16 24
-35 12 -21 27 -35 38 -35 19 0 19 2 -3 38 -12 20 -26 41 -31 46 -4 6 4 22 19
38 37 39 22 46 -20 9z"/>
<path d="M2823 916 c-18 -19 -23 -35 -23 -80 0 -43 3 -56 15 -56 11 0 15 12
16 48 l1 47 16 -48 c19 -58 40 -59 56 -4 13 46 27 40 19 -9 -4 -27 -2 -34 11
-34 13 0 16 12 16 75 0 41 -4 75 -8 75 -12 0 -36 -30 -52 -65 l-13 -30 -16 52
-16 52 -22 -23z"/>
<path d="M3072 909 c-28 -31 -52 -32 -52 -4 0 7 -7 15 -15 19 -21 8 -19 -13 5
-49 11 -16 20 -45 20 -62 0 -23 5 -33 15 -33 11 0 15 11 15 36 0 20 11 54 26
80 31 52 26 56 -14 13z"/>
<path d="M3425 933 c-54 -4 -88 -23 -42 -23 27 0 27 -1 27 -65 0 -51 3 -65 15
-65 12 0 15 14 15 65 0 63 1 65 25 65 16 0 25 6 25 15 0 8 -3 14 -7 13 -5 -1
-30 -3 -58 -5z"/>
<path d="M3565 933 c-42 -6 -55 -28 -55 -95 l0 -58 60 0 c68 0 82 17 18 22
-36 2 -44 7 -46 26 -3 20 1 22 37 22 23 0 41 5 41 10 0 10 -18 14 -57 10 -17
-1 -23 4 -23 19 0 18 6 21 40 21 29 0 40 4 40 15 0 8 -6 14 -12 14 -7 -1 -26
-4 -43 -6z"/>
<path d="M3910 914 c-6 -14 -10 -34 -10 -44 0 -28 -26 -15 -40 21 -12 27 -33
38 -43 22 -12 -19 -11 -126 0 -130 8 -3 13 12 15 44 l3 48 30 -47 c17 -26 38
-48 48 -48 15 0 17 10 17 80 0 44 -2 80 -5 80 -3 0 -10 -12 -15 -26z"/>
<path d="M4760 910 c-26 -37 -43 -38 -58 -5 -6 14 -16 25 -22 25 -15 0 -12
-11 10 -45 11 -16 20 -47 20 -67 0 -27 4 -38 15 -38 10 0 15 10 15 33 0 18 6
41 13 52 39 56 48 75 39 75 -6 0 -20 -13 -32 -30z"/>
<path d="M1160 920 c-13 -9 -13 -10 0 -10 8 0 22 5 30 10 13 9 13 10 0 10 -8
0 -22 -5 -30 -10z"/>
<path d="M1461 904 c-12 -15 -21 -37 -21 -49 0 -38 37 -75 76 -75 45 0 74 29
74 75 0 72 -86 104 -129 49z m90 -18 c15 -32 4 -73 -22 -81 -38 -12 -67 33
-50 79 14 35 57 36 72 2z"/>
<path d="M1635 910 c-23 -26 -13 -49 26 -57 34 -7 48 -28 30 -46 -9 -9 -19 -8
-43 6 -37 21 -48 15 -23 -13 20 -23 77 -27 92 -7 31 39 16 73 -38 84 -19 4
-29 12 -29 24 0 13 6 17 22 14 13 -3 24 -9 26 -15 2 -5 11 -10 19 -10 10 0 13
6 9 16 -3 9 -6 18 -6 20 0 14 -69 1 -85 -16z"/>
<path d="M1770 878 c0 -29 -3 -63 -6 -75 -5 -19 -2 -23 16 -23 18 0 21 5 18
33 -3 30 -1 32 30 35 31 3 32 2 32 -32 0 -25 4 -36 15 -36 12 0 15 14 15 69 0
74 -16 104 -26 51 -6 -28 -10 -31 -38 -28 -25 2 -32 8 -34 31 -6 48 -22 29
-22 -25z"/>
<path d="M2243 914 c-19 -20 -17 -134 1 -134 11 0 16 14 18 48 l3 47 28 -47
c43 -71 57 -64 57 28 0 47 -4 73 -10 69 -5 -3 -10 -22 -10 -41 0 -43 -23 -46
-40 -4 -17 40 -32 51 -47 34z"/>
<path d="M2746 908 c-3 -13 -6 -47 -6 -75 0 -41 4 -53 15 -53 12 0 15 15 15
75 0 73 -11 98 -24 53z"/>
<path d="M3164 922 c-18 -11 -34 -48 -34 -76 0 -59 86 -90 126 -45 25 28 25
96 -1 115 -20 15 -73 19 -91 6z m74 -37 c7 -14 12 -31 12 -37 0 -16 -31 -48
-46 -48 -36 0 -59 71 -32 98 21 21 54 14 66 -13z"/>
<path d="M3672 905 c6 -14 15 -25 20 -25 17 0 7 -31 -23 -65 -28 -31 -29 -35
-11 -35 11 0 28 12 37 27 l18 26 19 -26 c11 -15 26 -27 34 -27 12 0 11 8 -8
41 -22 39 -22 41 -5 71 21 37 12 52 -13 21 -22 -28 -32 -29 -48 -3 -18 29 -34
25 -20 -5z"/>
<path d="M3981 904 c-43 -55 -14 -124 53 -124 58 0 92 61 65 113 -16 30 -28
37 -66 37 -22 0 -38 -8 -52 -26z m93 -32 c7 -26 5 -36 -9 -52 -10 -11 -24 -20
-31 -20 -21 0 -44 30 -44 59 0 35 18 53 50 49 18 -2 27 -12 34 -36z"/>
<path d="M4146 920 c-2 -8 -6 -43 -8 -77 l-4 -63 58 0 c67 0 79 17 16 22 l-43
3 3 47 c4 49 -12 97 -22 68z"/>
<path d="M4290 910 c-29 -29 -30 -82 -3 -112 22 -24 74 -23 101 2 31 29 31 93
0 114 -31 22 -74 20 -98 -4z m78 -12 c20 -20 15 -76 -8 -88 -33 -18 -60 4 -60
49 0 21 3 41 7 44 11 11 48 8 61 -5z"/>
<path d="M4461 909 c-29 -32 -29 -93 1 -113 48 -34 118 -14 118 34 0 27 -3 30
-30 30 -16 0 -30 -4 -30 -10 0 -5 7 -10 15 -10 25 0 17 -29 -11 -36 -17 -4
-31 -1 -41 9 -16 16 -20 67 -8 87 8 13 65 13 65 0 0 -5 7 -10 16 -10 9 0 14 7
12 18 -5 28 -81 29 -107 1z"/>
<path d="M4617 923 c-4 -3 -7 -37 -7 -75 0 -54 3 -68 15 -68 12 0 15 15 15 75
0 69 -6 86 -23 68z"/>
<path d="M4848 913 c-9 -10 -21 -35 -27 -55 -7 -21 -17 -40 -22 -43 -14 -9
-11 -35 5 -35 7 0 16 9 19 20 4 14 14 20 35 20 22 0 32 -6 37 -20 3 -11 15
-20 25 -20 17 0 16 6 -12 75 -17 41 -34 75 -38 75 -4 0 -14 -8 -22 -17z m23
-66 c-15 -15 -30 1 -24 24 6 21 7 21 20 4 8 -12 9 -23 4 -28z"/>
<path d="M1176 891 c-19 -7 -19 -8 2 -13 12 -4 26 0 33 8 13 16 -2 18 -35 5z"/>
<path d="M1252 870 c0 -14 2 -19 5 -12 2 6 2 18 0 25 -3 6 -5 1 -5 -13z"/>
<path d="M52 860 c0 -14 2 -19 5 -12 2 6 2 18 0 25 -3 6 -5 1 -5 -13z"/>
<path d="M1169 854 c-13 -16 2 -18 35 -5 19 7 19 8 -2 13 -12 4 -26 0 -33 -8z"/>
<path d="M80 841 c0 -11 9 -21 23 -25 39 -10 47 -7 46 22 l0 27 -11 -25 -11
-25 -7 25 c-5 16 -8 19 -9 8 -1 -10 -6 -18 -12 -18 -6 0 -9 7 -5 15 3 8 1 15
-4 15 -6 0 -10 -8 -10 -19z"/>
<path d="M3318 843 c-29 -7 -20 -23 12 -23 20 0 30 5 30 15 0 15 -9 17 -42 8z"/>
<path d="M1262 810 c0 -19 2 -27 5 -17 2 9 2 25 0 35 -3 9 -5 1 -5 -18z"/>
<path d="M930 811 c-14 -28 -13 -39 9 -51 38 -20 71 13 51 51 -14 25 -46 25
-60 0z"/>
<path d="M1119 725 c-4 -101 -7 -116 -41 -185 -81 -168 -242 -270 -423 -270
-202 0 -374 124 -445 322 -11 29 -19 44 -20 33 0 -29 62 -154 98 -195 l31 -35
-47 -48 -47 -48 25 -20 c220 -178 491 -203 718 -67 48 29 169 131 134 113 -9
-5 -30 9 -57 35 l-44 43 30 38 c16 20 44 68 61 106 27 57 33 83 36 159 2 49 2
99 0 110 -3 10 -7 -30 -9 -91z m-588 -468 c0 -4 -3 -23 -7 -42 -9 -49 -29 -59
-21 -12 5 30 3 37 -11 37 -15 1 -14 3 3 15 19 15 37 16 36 2z m293 -14 c4 -16
9 -36 12 -45 3 -10 1 -18 -5 -18 -6 0 -13 11 -17 25 -3 14 -12 25 -20 25 -17
0 -18 7 -1 25 18 21 24 18 31 -12z m-389 -4 c11 -17 0 -20 -21 -4 -17 13 -17
14 -2 15 9 0 20 -5 23 -11z m203 -1 c29 -29 -7 -92 -46 -81 -15 4 -20 13 -20
41 0 21 2 40 5 45 7 11 48 8 61 -5z m100 0 c18 -18 15 -66 -5 -76 -10 -6 -28
-6 -40 -1 -30 11 -29 21 1 13 13 -3 27 -1 30 5 5 7 -3 11 -19 11 -27 0 -41 20
-31 45 7 18 47 20 64 3z m182 2 c0 -5 -4 -10 -9 -10 -5 0 -18 -3 -28 -6 -16
-5 -16 -4 1 10 23 18 36 20 36 6z"/>
<path d="M594 229 c-3 -6 -2 -15 2 -19 12 -12 38 5 30 19 -9 14 -23 14 -32 0z"/>
<path d="M585 180 c3 -5 13 -10 21 -10 8 0 14 5 14 10 0 6 -9 10 -21 10 -11 0
-17 -4 -14 -10z"/>
<path d="M694 229 c-10 -17 13 -36 27 -22 12 12 4 33 -11 33 -5 0 -12 -5 -16
-11z"/>
<path d="M1203 811 c-7 -26 -20 -27 -27 -3 -3 10 -4 7 -3 -7 2 -30 25 -39 34
-14 3 10 11 21 16 24 5 4 4 10 -3 14 -7 4 -13 -1 -17 -14z"/>
<path d="M632 754 c-28 -57 -28 -89 0 -108 19 -14 24 -14 50 2 18 10 28 25 28
40 0 23 -33 97 -48 106 -5 3 -18 -15 -30 -40z m51 -47 c9 5 9 3 1 -8 -7 -8
-14 -23 -17 -34 -2 -11 -4 12 -4 50 0 43 2 54 4 27 3 -29 8 -40 16 -35z"/>
<path d="M1220 789 c0 -5 5 -7 10 -4 6 3 10 8 10 11 0 2 -4 4 -10 4 -5 0 -10
-5 -10 -11z"/>
<path d="M84 771 c13 -15 14 -20 4 -24 -7 -3 3 -5 22 -5 19 0 27 2 18 5 -23 6
-23 19 -2 27 9 4 14 9 11 13 -4 3 -14 0 -23 -8 -13 -11 -18 -11 -21 -1 -3 6
-9 12 -15 12 -6 0 -3 -9 6 -19z"/>
<path d="M1208 743 c-37 -6 -36 -23 2 -23 20 0 30 5 30 15 0 8 -1 14 -2 14 -2
-1 -15 -4 -30 -6z"/>
<path d="M95 710 c-11 -5 -14 -9 -7 -9 6 -1 12 -7 12 -15 0 -8 -6 -17 -12 -19
-7 -3 -4 -6 7 -6 11 0 27 4 35 9 13 8 12 10 -2 10 -10 0 -18 5 -18 10 0 6 7
10 15 10 8 0 15 5 15 10 0 12 -17 12 -45 0z"/>
<path d="M1263 680 c0 -25 2 -35 4 -22 2 12 2 32 0 45 -2 12 -4 2 -4 -23z"/>
<path d="M1185 680 c28 -12 47 -12 40 0 -3 6 -18 10 -33 9 -24 0 -25 -1 -7 -9z"/>
<path d="M932 668 c-18 -18 -15 -32 11 -56 31 -29 45 -28 53 5 12 46 -33 82
-64 51z"/>
<path d="M2747 663 c-4 -3 -7 -24 -7 -45 0 -47 -10 -48 -34 -4 -10 19 -25 37
-33 40 -8 3 -12 2 -9 -3 3 -5 -1 -11 -9 -15 -20 -7 -22 -130 -2 -124 6 3 14
24 17 49 l5 44 33 -48 c45 -65 63 -52 56 41 -5 70 -7 76 -17 65z"/>
<path d="M2820 650 c-11 -11 -20 -24 -20 -29 0 -13 26 -32 57 -40 15 -4 28
-14 28 -22 0 -17 -43 -25 -58 -10 -15 15 -27 14 -27 -2 0 -23 47 -42 77 -31
59 21 56 67 -7 91 -22 9 -40 22 -40 30 0 16 24 17 50 1 26 -16 40 0 16 18 -27
19 -52 18 -76 -6z"/>
<path d="M2970 660 c-23 -5 -27 -8 -12 -9 20 -1 22 -6 22 -66 0 -50 3 -65 15
-65 10 0 15 16 17 63 3 56 5 62 26 65 12 2 20 8 17 13 -7 10 -33 10 -85 -1z"/>
<path d="M3165 660 c-31 -6 -34 -7 -12 -9 27 -1 27 -2 27 -66 0 -51 3 -65 15
-65 12 0 15 14 15 65 0 58 2 65 20 65 11 0 20 5 20 10 0 11 -24 11 -85 0z"/>
<path d="M3287 664 c-4 -4 -7 -33 -7 -64 0 -82 42 -114 98 -74 19 13 22 24 22
75 0 81 -24 77 -28 -5 -3 -56 -4 -57 -30 -54 -25 3 -27 7 -30 58 -3 54 -12 77
-25 64z"/>
<path d="M3460 660 c-22 -5 -27 -8 -13 -9 20 -1 22 -7 25 -68 2 -38 8 -68 13
-68 6 0 11 30 13 68 3 64 4 67 28 67 14 0 22 4 19 10 -7 11 -32 11 -85 0z"/>
<path d="M3575 647 c-10 -38 -1 -130 13 -135 9 -3 12 17 12 77 0 78 -13 107
-25 58z"/>
<path d="M2587 653 c-4 -3 -7 -35 -7 -70 0 -49 3 -63 15 -63 12 0 15 14 15 70
0 64 -6 81 -23 63z"/>
<path d="M3086 644 c-3 -9 -6 -40 -6 -70 0 -41 4 -54 15 -54 12 0 15 14 15 70
0 66 -10 90 -24 54z"/>
<path d="M122 638 c-6 -6 -12 -19 -13 -27 0 -12 -3 -10 -10 4 -8 19 -9 19 -6
1 3 -28 24 -31 33 -4 6 21 7 22 14 4 4 -11 9 -15 13 -9 3 5 1 18 -6 27 -10 13
-15 14 -25 4z"/>
<path d="M1195 639 c-23 -5 -25 -7 -7 -8 12 0 22 -6 22 -13 0 -9 3 -9 11 -1
19 19 6 29 -26 22z"/>
<path d="M51 624 c0 -11 3 -14 6 -6 3 7 2 16 -1 19 -3 4 -6 -2 -5 -13z"/>
<path d="M412 618 c-10 -12 42 -63 192 -187 38 -32 39 -32 15 -5 -97 111 -183
204 -189 204 -4 0 -12 -6 -18 -12z"/>
<path d="M810 548 c-135 -152 -131 -146 -84 -107 151 124 192 164 182 177 -6
6 -14 12 -18 12 -4 0 -40 -37 -80 -82z"/>
<path d="M1252 610 c0 -14 2 -19 5 -12 2 6 2 18 0 25 -3 6 -5 1 -5 -13z"/>
<path d="M1150 585 c-9 -11 -10 -18 -1 -29 14 -17 51 -28 51 -15 0 5 -6 9 -14
9 -7 0 -20 7 -27 16 -13 15 -11 17 19 12 17 -2 32 -1 32 4 0 4 -4 8 -9 8 -5 0
-16 2 -24 5 -7 3 -20 -1 -27 -10z"/>
<path d="M120 566 c-27 -33 18 -72 48 -42 13 13 14 20 6 34 -15 23 -38 26 -54
8z m44 -15 c8 -12 -21 -34 -34 -26 -17 11 -11 35 9 35 11 0 22 -4 25 -9z"/>
<path d="M829 490 c-184 -136 -181 -138 21 -13 120 73 127 79 114 93 -8 8 -44
-14 -135 -80z"/>
<path d="M350 558 c0 -7 49 -41 108 -75 59 -35 123 -72 142 -84 l35 -21 -30
27 c-16 14 -41 34 -55 43 -14 9 -58 40 -97 69 -72 52 -103 65 -103 41z"/>
<path d="M1134 505 c11 -8 23 -20 27 -26 4 -8 11 -5 18 9 9 17 8 19 -8 15 -10
-3 -22 0 -25 6 -4 6 -13 11 -19 11 -7 0 -3 -7 7 -15z"/>
<path d="M173 485 c-11 -8 -23 -11 -27 -8 -3 3 -6 2 -6 -4 0 -18 12 -22 26 -8
8 7 19 15 26 18 7 2 10 7 7 10 -3 4 -14 0 -26 -8z"/>
<path d="M1201 473 c-10 -26 -10 -27 4 -9 8 11 15 23 15 28 0 15 -7 8 -19 -19z"/>
<path d="M1100 472 c0 -10 50 -35 57 -28 3 2 -9 12 -26 21 -17 8 -31 12 -31 7z"/>
</g>
</svg>
